<?xml version="1.0" encoding="utf-8"?>
<!-- Generator: Adobe Illustrator 25.2.0, SVG Export Plug-In . SVG Version: 6.00 Build 0)  -->
<svg version="1.1" id="Layer_1" xmlns="http://www.w3.org/2000/svg" xmlns:xlink="http://www.w3.org/1999/xlink" x="0px" y="0px"
	 viewBox="0 0 315.1 28.8" style="enable-background:new 0 0 315.1 28.8;" xml:space="preserve">
<style type="text/css">
	.st0{fill:none;stroke:#6BFDE9;stroke-width:2;}
</style>
<g id="Group_123" transform="translate(1.19 0.473)">
	<path id="Path_123" class="st0" d="M3.8-0.5l-5,28.5h14.6l4.9-28.5L23.2,28h12.3L50.1-0.5L45.6,28h14.3l5-28.5"/>
	<path id="Path_124" class="st0" d="M30.8-0.5l2,10.3l5.5-10.3"/>
	<path id="Path_127" class="st0" d="M144.1-0.5l-4.9,28.4h14.5l5-28.4"/>
	<path id="Path_128" class="st0" d="M178.6-0.5L178.6-0.5c-2.2,8.7-1.5,20,8.7,26c11,6.2,33.3,3.1,40.8-17.3"/>
	<path id="Path_129" class="st0" d="M193.4-0.5L193.4-0.5c-2.1,7.4,0.1,13.5,5.2,14.9c4.8,1.3,10.7-0.7,14.2-6.3
		c0,0,15.3,0.3,15.3,0.3l-0.7,1.6"/>
	<path id="Path_130" class="st0" d="M238.3-0.5l-4.9,28.4h14.5l3.8-21.2h17.8l-3.7,21.2h14.5l5-28.4"/>
	<path id="Path_131" class="st0" d="M297.6,13.7L295,27.9h14.7l2.6-14.2H297.6z"/>
	<path id="Path_132" class="st0" d="M300.7-0.5L299.6,8h12.5l1.8-8.5"/>
	<path id="Path_125" class="st0" d="M82-0.4L66.5,27.9h15.4l4.4-8.8H105l1.4,8.8h15.4l-5.4-28.3"/>
	<path id="Path_126" class="st0" d="M96.2-0.4L92,8.1h11.3L102-0.4"/>
</g>
</svg>
