<?xml version="1.0" encoding="utf-8"?>
<!-- Generator: Adobe Illustrator 25.2.0, SVG Export Plug-In . SVG Version: 6.00 Build 0)  -->
<svg version="1.1" id="Layer_1" xmlns="http://www.w3.org/2000/svg" xmlns:xlink="http://www.w3.org/1999/xlink" x="0px" y="0px"
	 viewBox="0 0 315.1 28.8" style="enable-background:new 0 0 315.1 28.8;" xml:space="preserve">
<style type="text/css">
	.st0{fill:none;stroke:#6BFDE9;}
</style>
<g id="Group_122" transform="translate(0.595 0.236)">
	<path id="Path_123" class="st0" d="M4.4-0.2l-5,28.5H14l4.9-28.5l4.9,28.5h12.3L50.6-0.2l-4.5,28.5h14.3l5-28.5"/>
	<path id="Path_124" class="st0" d="M31.4-0.2l2,10.3l5.5-10.3"/>
	<path id="Path_127" class="st0" d="M144.7-0.2l-4.9,28.4h14.5l5-28.4"/>
	<path id="Path_128" class="st0" d="M179.2-0.2L179.2-0.2c-2.2,8.7-1.5,20,8.7,26c11,6.2,33.3,3.1,40.8-17.3"/>
	<path id="Path_129" class="st0" d="M194-0.2L194-0.2c-2.1,7.4,0.1,13.5,5.2,14.9c4.8,1.3,10.7-0.7,14.2-6.3c0,0,15.3,0.3,15.3,0.3
		l-0.7,1.6"/>
	<path id="Path_130" class="st0" d="M238.9-0.2L234,28.2h14.5L252.4,7h17.8l-3.7,21.2H281l5-28.4"/>
	<path id="Path_131" class="st0" d="M298.2,14l-2.5,14.2h14.7l2.6-14.2H298.2z"/>
	<path id="Path_132" class="st0" d="M301.3-0.2l-1.1,8.5h12.5l1.8-8.5"/>
	<path id="Path_125" class="st0" d="M82.6-0.2L67.1,28.1h15.4l4.4-8.8h18.7l1.4,8.8h15.4L117-0.2"/>
	<path id="Path_126" class="st0" d="M96.8-0.2l-4.3,8.6h11.3l-1.3-8.6"/>
</g>
</svg>
