<?xml version="1.0" encoding="utf-8"?>
<!-- Generator: Adobe Illustrator 25.2.0, SVG Export Plug-In . SVG Version: 6.00 Build 0)  -->
<svg version="1.1" id="Layer_1" xmlns="http://www.w3.org/2000/svg" xmlns:xlink="http://www.w3.org/1999/xlink" x="0px" y="0px"
	 viewBox="0 0 88.9 25.8" style="enable-background:new 0 0 88.9 25.8;" xml:space="preserve">
<style type="text/css">
	.st0{fill:url(#Path_134_1_);stroke:#50BCAD;stroke-width:0.5;}
</style>
<linearGradient id="Path_134_1_" gradientUnits="userSpaceOnUse" x1="-109.0886" y1="16.423" x2="-108.0886" y2="15.423" gradientTransform="matrix(88.875 0 0 -25.7871 9691.7354 424.5313)">
	<stop  offset="0" style="stop-color:#6BFDE9"/>
	<stop  offset="1" style="stop-color:#00FFB9"/>
</linearGradient>
<path id="Path_134" class="st0" d="M10.2,3l-4,22.6H0L4,3H10.2z M31.6,3l-0.9,5h-6.1l-3.1,17.6h-6.2L18.4,8h-6l0.9-5L31.6,3z
	 M38.1,0l-1.7,7.3h-4.2L33,0L38.1,0z M57.4,19.9c-0.2,1.1-0.7,2.1-1.4,3c-0.8,0.9-1.9,1.7-3,2.1c-1.4,0.5-2.8,0.8-4.3,0.8
	c-2.3,0.1-4.5-0.5-6.3-1.9c-1.5-1.3-2.4-3.3-2.3-5.3h6.7c-0.1,0.6,0,1.3,0.4,1.8c0.4,0.4,1,0.6,1.5,0.6c0.5,0,0.9-0.1,1.3-0.4
	c0.4-0.3,0.6-0.7,0.7-1.1c0-0.1,0-0.2,0-0.4c0-0.6-0.3-1.2-0.8-1.5c-0.8-0.5-1.7-1-2.7-1.4c-1-0.4-2-0.9-2.9-1.4
	c-0.8-0.5-1.5-1.1-2-1.9c-0.6-0.9-0.9-2-0.8-3c0-0.5,0.1-1.1,0.2-1.6C42,6.4,43,5,44.6,4.1c1.7-1,3.7-1.5,5.7-1.5
	c2.8,0,4.9,0.6,6.2,1.8c1.4,1.3,2.2,3.2,2.2,5.1H52c0.1-0.6-0.1-1.1-0.4-1.6c-0.3-0.4-0.8-0.5-1.3-0.5c-0.5,0-0.9,0.1-1.3,0.4
	c-0.4,0.3-0.5,0.8-0.5,1.3c0,0.6,0.3,1.1,0.8,1.4c0.8,0.5,1.6,0.9,2.5,1.2c1,0.4,2,0.9,3,1.4c0.8,0.5,1.5,1.1,2,1.9
	c0.6,0.9,0.9,2,0.8,3.1C57.6,18.9,57.5,19.4,57.4,19.9z M81.7,21.8h-8l-1.9,3.8h-6.6L77.4,3.1h7.2l4.3,22.5h-6.6L81.7,21.8z
	 M81,17.1l-1.1-7.3l-3.7,7.3H81z"/>
</svg>
