<?xml version="1.0" encoding="utf-8"?>
<!-- Generator: Adobe Illustrator 25.2.0, SVG Export Plug-In . SVG Version: 6.00 Build 0)  -->
<svg version="1.1" id="Layer_1" xmlns="http://www.w3.org/2000/svg" xmlns:xlink="http://www.w3.org/1999/xlink" x="0px" y="0px"
	 viewBox="0 0 321.4 56" style="enable-background:new 0 0 321.4 56;" xml:space="preserve">
<style type="text/css">
	.st0{fill:url(#Path_133_1_);stroke:#50BCAD;stroke-width:0.5;}
</style>
<linearGradient id="Path_133_1_" gradientUnits="userSpaceOnUse" x1="3.7561" y1="36.777" x2="4.6951" y2="35.91" gradientTransform="matrix(321.39 0 0 -56.0515 -1199.3081 2064.6057)">
	<stop  offset="0" style="stop-color:#6BFDE9"/>
	<stop  offset="1" style="stop-color:#00FFB9"/>
</linearGradient>
<path id="Path_133" class="st0" d="M70.3,3.2l-9.1,52.4H46.6L51.8,26L36.9,55.6H24.3l-4.5-29.6l-5.3,29.6H0L9.1,3.2h17.9l6.9,34
	l18.6-34L70.3,3.2z M106.2,46.9H87.6l-4.5,8.8H67.7L96.2,3.2H113l10,52.4h-15.5L106.2,46.9z M104.5,35.9l-2.7-17.1l-8.7,17.1H104.5z
	 M178.4,3l-2.1,11.7h-14.1l-7.2,41h-14.6l7.1-41h-14l2-11.7L178.4,3z M209.8,2.5c4-0.1,8,0.7,11.6,2.5c3.1,1.6,5.7,4,7.4,7.1
	c1.8,3.3,2.7,6.9,2.7,10.6h-15.5c-0.4-1.9-1.5-3.7-3.1-4.9c-1.7-1.2-3.8-1.8-5.8-1.7c-3.2,0-6.2,1.3-8.4,3.6c-2.5,2.7-4.1,6-4.7,9.6
	c-0.2,1.1-0.3,2.3-0.3,3.4c-0.2,2.6,0.7,5.2,2.3,7.2c1.6,1.8,4,2.8,6.4,2.6c2.3,0,4.5-0.6,6.5-1.8c2-1.2,3.7-2.9,4.9-4.9h15.4
	c-2.1,5.9-6,11-11.1,14.7c-5.2,3.7-11.4,5.6-17.7,5.5c-4,0.1-8.1-0.8-11.7-2.6c-3.2-1.6-5.8-4.2-7.4-7.3c-1.7-3.4-2.6-7.2-2.5-11
	c0-2,0.2-3.9,0.5-5.9c0.8-5,2.7-9.7,5.6-13.9c2.7-4,6.4-7.2,10.7-9.5C200,3.6,204.9,2.4,209.8,2.5L209.8,2.5z M290.8,3l-9.2,52.6
	h-14.6l3.7-21.3h-17.8l-3.7,21.3h-14.6L243.8,3h14.6L255,22.7h17.8L276.3,3H290.8z M321.4,0l-8.1,35.8h-12.5L305.4,0H321.4z
	 M313.5,41.4l-2.6,14.3h-14.7l2.5-14.3H313.5z"/>
</svg>
