<?xml version="1.0" encoding="utf-8"?>
<!-- Generator: Adobe Illustrator 25.2.0, SVG Export Plug-In . SVG Version: 6.00 Build 0)  -->
<svg version="1.1" id="Layer_1" xmlns="http://www.w3.org/2000/svg" xmlns:xlink="http://www.w3.org/1999/xlink" x="0px" y="0px"
	 viewBox="0 0 40 40" style="enable-background:new 0 0 40 40;" xml:space="preserve" >
<style type="text/css">
	.st0{fill:none;}
	.st1{fill:#95B0B7;}
</style>

<path id="Path_58" class="st0" d="M-0.01-0.01h40.02v40.02H-0.01V-0.01z"/>
<path id="Path_59" class="st1" d="M31.91,21.57c0.07-0.52,0.1-1.04,0.1-1.57c0-0.52-0.04-1.05-0.12-1.57l3.38-2.63
	c0.3-0.25,0.38-0.67,0.2-1.02l-3.21-5.54c-0.19-0.35-0.61-0.5-0.98-0.37l-3.99,1.6c-0.83-0.64-1.73-1.17-2.7-1.57L24,4.68
	c-0.06-0.39-0.4-0.69-0.8-0.68h-6.4c-0.4,0-0.73,0.29-0.78,0.68l-0.6,4.23c-0.96,0.4-1.87,0.93-2.7,1.57l-3.98-1.6
	C8.36,8.74,7.94,8.89,7.75,9.24l-3.19,5.54c-0.21,0.34-0.12,0.78,0.2,1.02l3.38,2.63c-0.19,1.04-0.2,2.1-0.03,3.14L4.73,24.2
	c-0.3,0.25-0.38,0.67-0.2,1.02l3.2,5.54c0.19,0.35,0.61,0.5,0.98,0.37l3.99-1.6c0.83,0.64,1.73,1.17,2.7,1.57l0.6,4.24
	c0.07,0.39,0.4,0.68,0.8,0.68h6.4c0.4,0.01,0.74-0.29,0.78-0.68l0.6-4.24c0.97-0.4,1.88-0.92,2.7-1.57l3.99,1.6
	c0.37,0.14,0.79-0.02,0.98-0.37l3.2-5.54c0.2-0.34,0.12-0.78-0.2-1.02L31.91,21.57z M20,26c-3.31,0-6-2.69-6-6s2.69-6,6-6
	c3.31,0,6,2.69,6,6C25.99,23.31,23.31,25.99,20,26z" />
</svg>
