<?xml version="1.0" encoding="utf-8"?>
<!-- Generator: Adobe Illustrator 25.2.0, SVG Export Plug-In . SVG Version: 6.00 Build 0)  -->
<svg version="1.1" id="Layer_1" xmlns="http://www.w3.org/2000/svg" xmlns:xlink="http://www.w3.org/1999/xlink" x="0px" y="0px"
	 viewBox="0 0 40 40" style="enable-background:new 0 0 40 40;" xml:space="preserve">
<style type="text/css">
	.st0{fill:none;}
	.st1{fill:#95B0B7;}
</style>
<g id="storefront_black_24dp" transform="translate(0 -0.438)">
	<g id="Group_38" transform="translate(0 0.438)">
		<rect id="Rectangle_45" class="st0" width="40" height="40"/>
	</g>
	<g id="Group_40" transform="translate(3.848 5.75)">
		<g id="Group_39">
			<path id="Path_62" class="st1" d="M32.69,9.13l-1.75-7.29c-0.34-1.48-1.66-2.53-3.19-2.54H4.58C3.06-0.68,1.75,0.37,1.41,1.84
				l-1.75,7.29c-0.41,1.68-0.03,3.45,1.03,4.81c0.15,0.17,0.3,0.33,0.47,0.48V26c0.01,1.84,1.5,3.33,3.34,3.34h23.36
				c1.84-0.01,3.33-1.5,3.34-3.34V14.42c0.16-0.15,0.32-0.3,0.47-0.47C32.73,12.59,33.11,10.81,32.69,9.13z M27.7,2.63l1.75,7.29
				c0.17,0.68,0.02,1.4-0.42,1.95c-0.37,0.49-0.95,0.78-1.57,0.78c-1.06-0.03-1.93-0.85-2.02-1.9l-0.97-8.1L27.7,2.63z M17.84,2.64
				h3.27l0.9,7.54c0.08,0.65-0.12,1.3-0.55,1.79c-0.4,0.46-0.98,0.71-1.59,0.68c-1.16-0.05-2.07-1.02-2.04-2.19V2.64z M10.32,10.19
				l0.91-7.54h3.27v7.83c0.02,1.18-0.92,2.16-2.1,2.19c-0.02,0-0.03,0-0.05,0c-0.57-0.01-1.11-0.26-1.49-0.68
				C10.45,11.48,10.25,10.83,10.32,10.19z M2.89,9.92l1.69-7.27h3.29L6.9,10.75c-0.1,1.05-0.96,1.87-2.02,1.9
				c-0.61,0-1.19-0.29-1.55-0.78C2.88,11.33,2.72,10.6,2.89,9.92z M4.49,26V15.94c0.13,0.02,0.25,0.04,0.38,0.05
				c1.41,0,2.76-0.57,3.74-1.59c1.02,1.03,2.41,1.6,3.85,1.59c1.4-0.01,2.73-0.57,3.72-1.55c1.02,1,2.4,1.56,3.83,1.55
				c1.41-0.01,2.75-0.58,3.74-1.59c0.98,1.01,2.33,1.58,3.74,1.59c0.13-0.01,0.26-0.03,0.38-0.05V26H4.49z"/>
		</g>
	</g>
</g>
</svg>
