<?xml version="1.0" encoding="utf-8"?>
<!-- Generator: Adobe Illustrator 25.2.0, SVG Export Plug-In . SVG Version: 6.00 Build 0)  -->
<svg version="1.1" id="Layer_1" xmlns="http://www.w3.org/2000/svg" xmlns:xlink="http://www.w3.org/1999/xlink" x="0px" y="0px"
	 viewBox="0 0 20 20" style="enable-background:new 0 0 20 20;" xml:space="preserve">
<style type="text/css">
	.st0{fill:none;}
	.st1{fill:#BDBDBD;}
</style>
<g id="verified_black_24dp_1_" transform="translate(0 -0.428)">
	<g id="Group_79" transform="translate(0 0.428)">
		<rect id="Rectangle_88" class="st0" width="20" height="20"/>
	</g>
	<g id="Group_80" transform="translate(1.383 2.301)">
		<path id="Path_100" class="st1" d="M17.43,8.03L15.5,5.89l0.27-2.82l-2.86-0.63L11.41,0L8.72,1.12L6.02,0l-1.5,2.44L1.66,3.06
			l0.27,2.83L0,8.03l1.93,2.13l-0.27,2.83l2.86,0.63l1.5,2.44l2.69-1.12l2.69,1.12l1.5-2.44l2.86-0.63l-0.28-2.82L17.43,8.03z
			 M7.2,11.63L4.19,8.72l1.17-1.13L7.2,9.37l4.64-4.49l1.17,1.13L7.2,11.63z" fill = 'currentColor'/>
	</g>
</g>
</svg>
