<?xml version="1.0" encoding="utf-8"?>
<!-- Generator: Adobe Illustrator 25.2.0, SVG Export Plug-In . SVG Version: 6.00 Build 0)  -->
<svg version="1.1" id="Layer_1" xmlns="http://www.w3.org/2000/svg" xmlns:xlink="http://www.w3.org/1999/xlink" x="0px" y="0px"
	 viewBox="0 0 26 26" style="enable-background:new 0 0 26 26;" xml:space="preserve">
<style type="text/css">
	.st0{fill:none;}
	.st1{fill:#8FD0B1;}
</style>
<path id="Path_52" class="st0" d="M0,0h26v26H0V0z"/>
<path id="Path_53" class="st1" d="M4.34,4.34h17.33v13H5.6L4.34,18.6V4.34 M4.34,2.17C3.14,2.17,2.18,3.14,2.18,4.34l-0.01,19.5
	L6.5,19.5h15.16c1.2,0,2.17-0.97,2.17-2.17V4.34c0-1.2-0.97-2.17-2.17-2.17H4.34z M6.5,13h13v2.17h-13V13z M6.5,9.75h13v2.17h-13
	V9.75z M6.5,6.5h13v2.17h-13V6.5z"/>
</svg>
