<?xml version="1.0" encoding="utf-8"?>
<!-- Generator: Adobe Illustrator 25.2.0, SVG Export Plug-In . SVG Version: 6.00 Build 0)  -->
<svg version="1.1" id="Layer_1" xmlns="http://www.w3.org/2000/svg" xmlns:xlink="http://www.w3.org/1999/xlink" x="0px" y="0px"
	 viewBox="0 0 26 26" style="enable-background:new 0 0 26 26;" xml:space="preserve">
<style type="text/css">
	.st0{fill:none;}
	.st1{fill:#CDE083;}
</style>
<path id="Path_54" class="st0" d="M0,0h26v26H0V0z"/>
<path id="Path_55" class="st1" d="M19.12,6.88c-3.38-3.39-8.86-3.4-12.25-0.02s-3.4,8.86-0.02,12.25s8.86,3.4,12.25,0.02
	c1.1-1.1,1.88-2.47,2.27-3.97h-2.25c-1.2,3.38-4.91,5.16-8.29,3.96c-3.38-1.2-5.16-4.91-3.96-8.29C7.79,8.23,10.24,6.5,13,6.5
	c1.72,0,3.37,0.7,4.57,1.93l-3.49,3.49h7.58V4.33L19.12,6.88z"/>
</svg>
