<?xml version="1.0" encoding="utf-8"?>
<!-- Generator: Adobe Illustrator 25.2.0, SVG Export Plug-In . SVG Version: 6.00 Build 0)  -->
<svg version="1.1" id="Layer_1" xmlns="http://www.w3.org/2000/svg" xmlns:xlink="http://www.w3.org/1999/xlink" x="0px" y="0px"
	 viewBox="0 0 26 26" style="enable-background:new 0 0 26 26;" xml:space="preserve">
<style type="text/css">
	.st0{fill:#AEBCB9;}
</style>
<g id="Group_37" transform="translate(292.467 -641.87) rotate(45)">
	<path id="Rectangle_41" class="st0" d="M265.45,643.7L265.45,643.7c1.88,0,3.4,1.52,3.4,3.4v27.17c0,1.88-1.52,3.4-3.4,3.4l0,0
		c-1.88,0-3.4-1.52-3.4-3.4v-27.17C262.05,645.22,263.57,643.7,265.45,643.7z"/>
	<path id="Rectangle_42" class="st0" d="M282.43,660.68L282.43,660.68c0,1.88-1.52,3.4-3.4,3.4h-27.17c-1.88,0-3.4-1.52-3.4-3.4l0,0
		c0-1.88,1.52-3.4,3.4-3.4h27.17C280.91,657.28,282.43,658.8,282.43,660.68z"/>
</g>
</svg>
