<?xml version="1.0" encoding="utf-8"?>
<!-- Generator: Adobe Illustrator 25.2.0, SVG Export Plug-In . SVG Version: 6.00 Build 0)  -->
<svg version="1.1" id="Layer_1" xmlns="http://www.w3.org/2000/svg" xmlns:xlink="http://www.w3.org/1999/xlink" x="0px" y="0px"
	 viewBox="0 0 24.05 18.16" style="enable-background:new 0 0 24.05 18.16;" xml:space="preserve">
<style type="text/css">
	.st0{fill:#FFFFFF;}
</style>
<path id="Union_1" class="st0" d="M13.6,17.52c-0.85-0.85-0.85-2.23,0-3.09l2.92-2.92H2.35c-1.2,0.08-2.25-0.83-2.33-2.04
	s0.83-2.25,2.03-2.33c0.1-0.01,0.2-0.01,0.29,0h14.57L13.6,3.83c-0.91-0.8-1-2.18-0.2-3.09s2.18-1,3.08-0.2
	c0.07,0.06,0.14,0.13,0.2,0.2l6.73,6.73c0.44,0.44,0.67,1.04,0.64,1.65c0.03,0.62-0.2,1.22-0.64,1.65l-6.73,6.74
	C15.83,18.37,14.45,18.37,13.6,17.52z"/>
</svg>
