<?xml version="1.0" encoding="utf-8"?>
<!-- Generator: Adobe Illustrator 25.2.0, SVG Export Plug-In . SVG Version: 6.00 Build 0)  -->
<svg version="1.1" id="Layer_1" xmlns="http://www.w3.org/2000/svg" xmlns:xlink="http://www.w3.org/1999/xlink" x="0px" y="0px"
	 viewBox="0 0 17 17" style="enable-background:new 0 0 17 17;" xml:space="preserve">
<style type="text/css">
	.st0{fill:none;}
	.st1{fill:#F68C42;}
</style>
<path id="Path_108" class="st0" d="M0,0h17v17H0V0z"/>
<path id="Path_109" class="st1" d="M8.5,4.25c0.78,0,1.42-0.63,1.42-1.41c0,0,0,0,0,0c0-0.26-0.07-0.51-0.2-0.73L8.5,0L7.29,2.1
	c-0.14,0.22-0.21,0.47-0.2,0.73C7.08,3.61,7.72,4.25,8.5,4.25z M12.75,6.38H9.21V4.96H7.79v1.42H4.25c-1.17,0-2.12,0.95-2.12,2.12
	c0,0,0,0,0,0.01v6.38c0,0.39,0.32,0.71,0.71,0.71h11.33c0.39,0,0.71-0.32,0.71-0.71V8.5C14.88,7.33,13.93,6.38,12.75,6.38
	C12.75,6.37,12.75,6.37,12.75,6.38z M13.46,14.17H3.54v-2.12c0.64-0.01,1.25-0.26,1.7-0.72l0.77-0.76l0.76,0.76
	c0.97,0.92,2.49,0.92,3.46,0L11,10.57l0.76,0.76c0.45,0.45,1.06,0.71,1.7,0.72L13.46,14.17L13.46,14.17z M13.46,10.98
	c-0.36,0-0.7-0.14-0.96-0.4l-1.51-1.51l-1.52,1.51c-0.55,0.52-1.41,0.52-1.96,0L6.01,9.07l-1.52,1.51c-0.25,0.25-0.59,0.4-0.95,0.4
	V8.5c0-0.39,0.32-0.71,0.71-0.71h8.5c0.39,0,0.71,0.32,0.71,0.71V10.98z" fill = "currentColor" />
</svg>
