<?xml version="1.0" encoding="utf-8"?>
<!-- Generator: Adobe Illustrator 25.2.0, SVG Export Plug-In . SVG Version: 6.00 Build 0)  -->
<svg version="1.1" id="Layer_1" xmlns="http://www.w3.org/2000/svg" xmlns:xlink="http://www.w3.org/1999/xlink" x="0px" y="0px"
	 viewBox="0 0 50 50" style="enable-background:new 0 0 50 50;" xml:space="preserve">
<style type="text/css">
	.st0{fill:none;}
	.st1{fill:#D799C4;}
</style>
<g id="female_black_24dp_1_" transform="translate(0 -0.377)">
	<rect id="Rectangle_96" y="0.38" class="st0" width="50" height="50"/>
	<path id="Path_105" class="st1" d="M36.58,20.07c0.01-6.35-5.12-11.51-11.48-11.52c-6.35-0.01-11.51,5.12-11.52,11.48
		c-0.01,5.55,3.95,10.32,9.41,11.33v4.39h-4.18v4.18h4.18v4.18h4.18v-4.18h4.18v-4.18h-4.18v-4.39
		C32.62,30.36,36.58,25.61,36.58,20.07z M17.77,20.07c0-4.04,3.27-7.32,7.31-7.32c4.04,0,7.32,3.27,7.32,7.31
		c0,4.04-3.27,7.32-7.31,7.32C21.05,27.38,17.77,24.11,17.77,20.07z"/>
</g>
</svg>
