<?xml version="1.0" encoding="utf-8"?>
<!-- Generator: Adobe Illustrator 25.2.0, SVG Export Plug-In . SVG Version: 6.00 Build 0)  -->
<svg version="1.1" id="Layer_1" xmlns="http://www.w3.org/2000/svg" xmlns:xlink="http://www.w3.org/1999/xlink" x="0px" y="0px"
	 viewBox="0 0 25.39 20.32" style="enable-background:new 0 0 25.39 20.32;" xml:space="preserve">
<style type="text/css">
	.st0{fill:#FFFFFF;}
</style>
<g id="Group_41" transform="translate(0)">
	<path id="Path_63" class="st0" d="M0,2.79c0-0.31,0.25-0.56,0.56-0.56c0,0,0,0,0,0h9.28c0.31,0,0.56,0.25,0.56,0.56
		c0,0.31-0.25,0.56-0.56,0.56H0.57C0.25,3.36,0,3.11,0,2.79C0,2.79,0,2.79,0,2.79z"/>
	<path id="Path_64" class="st0" d="M8.65,17.52c0-0.31,0.25-0.56,0.56-0.56c0,0,0,0,0,0h15.62c0.31,0,0.56,0.25,0.56,0.56
		c0,0.31-0.25,0.56-0.56,0.56H9.21C8.9,18.08,8.65,17.83,8.65,17.52C8.65,17.52,8.65,17.52,8.65,17.52z"/>
	<path id="Path_65" class="st0" d="M0,10.16c0-0.31,0.25-0.56,0.56-0.56h16.95c0.31,0,0.56,0.25,0.56,0.56
		c0,0.31-0.25,0.56-0.56,0.56H0.56C0.25,10.72,0,10.47,0,10.16z"/>
	<path id="Path_66" class="st0" d="M16.95,10.16c0-1.55,1.25-2.8,2.8-2.8c1.55,0,2.8,1.25,2.8,2.8s-1.25,2.8-2.8,2.8
		C18.2,12.96,16.95,11.71,16.95,10.16L16.95,10.16z M21.41,10.16c0-0.92-0.74-1.67-1.66-1.67s-1.67,0.74-1.67,1.66
		c0,0.92,0.74,1.67,1.66,1.67C20.66,11.82,21.41,11.08,21.41,10.16L21.41,10.16z"/>
	<path id="Path_67" class="st0" d="M9.28,2.8c0-1.55,1.25-2.8,2.8-2.8s2.8,1.25,2.8,2.8s-1.25,2.8-2.8,2.8S9.28,4.34,9.28,2.8
		L9.28,2.8z M13.74,2.8c0-0.92-0.74-1.67-1.66-1.67s-1.67,0.74-1.67,1.66c0,0.92,0.74,1.67,1.66,1.67
		C12.99,4.46,13.74,3.72,13.74,2.8z"/>
	<path id="Path_68" class="st0" d="M4.18,17.52c0-1.55,1.25-2.8,2.8-2.8s2.8,1.25,2.8,2.8c0,1.55-1.25,2.8-2.8,2.8
		S4.18,19.07,4.18,17.52L4.18,17.52z M8.65,17.52c0-0.92-0.74-1.67-1.66-1.67c-0.92,0-1.67,0.74-1.67,1.66
		c0,0.92,0.74,1.67,1.66,1.67C7.89,19.19,8.64,18.44,8.65,17.52z"/>
	<path id="Path_69" class="st0" d="M13.74,2.79c0-0.31,0.25-0.56,0.56-0.56h10.52c0.31,0,0.56,0.25,0.56,0.56
		c0,0.31-0.25,0.56-0.56,0.56H14.3C13.99,3.36,13.74,3.1,13.74,2.79z"/>
	<path id="Path_70" class="st0" d="M21.41,10.16c0-0.31,0.25-0.56,0.56-0.56c0,0,0,0,0,0h2.85c0.31,0,0.56,0.25,0.56,0.56
		c0,0.31-0.25,0.56-0.56,0.56h-2.85C21.66,10.72,21.41,10.47,21.41,10.16C21.41,10.16,21.41,10.16,21.41,10.16z"/>
	<path id="Path_71" class="st0" d="M0,17.52c0-0.31,0.25-0.56,0.56-0.56c0,0,0,0,0,0h4.18c0.31,0,0.56,0.25,0.56,0.56
		c0,0.31-0.25,0.56-0.56,0.56H0.56C0.25,18.08,0,17.83,0,17.52C0,17.52,0,17.52,0,17.52z"/>
</g>
</svg>
