<?xml version="1.0" encoding="utf-8"?>
<!-- Generator: Adobe Illustrator 25.2.0, SVG Export Plug-In . SVG Version: 6.00 Build 0)  -->
<svg version="1.1" id="Layer_1" xmlns="http://www.w3.org/2000/svg" xmlns:xlink="http://www.w3.org/1999/xlink" x="0px" y="0px"
	 viewBox="0 0 28 28" style="enable-background:new 0 0 28 28;" xml:space="preserve">
<style type="text/css">
	.st0{fill:none;}
	.st1{fill:#95B0B7;}
</style>
<path id="Path_74" class="st0" d="M0,0h28v28H0V0z"/>
<path id="Path_75" class="st1" d="M18.08,16.33h-0.92l-0.33-0.31c2.73-3.18,2.37-7.98-0.82-10.71S8.04,2.94,5.31,6.13
	S2.94,14.1,6.12,16.84c2.85,2.44,7.05,2.44,9.89,0l0.32,0.33v0.92l5.83,5.82l1.74-1.74L18.08,16.33z M11.08,16.33
	c-2.9,0-5.25-2.35-5.25-5.25s2.35-5.25,5.25-5.25s5.25,2.35,5.25,5.25l0,0c0,2.9-2.34,5.25-5.24,5.25
	C11.09,16.33,11.09,16.33,11.08,16.33z"/>
</svg>
