<?xml version="1.0" encoding="utf-8"?>
<!-- Generator: Adobe Illustrator 25.2.0, SVG Export Plug-In . SVG Version: 6.00 Build 0)  -->
<svg version="1.1" id="Layer_1" xmlns="http://www.w3.org/2000/svg" xmlns:xlink="http://www.w3.org/1999/xlink" x="0px" y="0px"
	 viewBox="0 0 34.16 21.4" style="enable-background:new 0 0 34.16 21.4;" xml:space="preserve">
<style type="text/css">
	.st0{fill:#FFFFFF;}
</style>
<g id="Group_111" transform="translate(-48.731 -627.299)">
	<rect id="Rectangle_9" x="59.45" y="636.01" class="st0" width="7.84" height="4.09"/>
	<g id="Group_110">
		<path id="Path_8" class="st0" d="M65.45,636.01c1.1,3.32-0.7,6.91-4.02,8.01c-3.32,1.1-6.91-0.7-8.01-4.02
			c-1.1-3.32,0.7-6.91,4.02-8.01c2.12-0.7,4.45-0.24,6.14,1.22l3.02-3.18c-4.4-3.95-11.18-3.59-15.13,0.82
			c-3.95,4.4-3.59,11.18,0.82,15.13c4.4,3.95,11.18,3.59,15.13-0.82c2.23-2.48,3.17-5.87,2.55-9.15L65.45,636.01z"/>
		<path id="Path_9" class="st0" d="M82.9,636.11h-3.25v-3.25h-3.33v3.25h-3.25v3.33h3.25v3.25h3.33v-3.25h3.25V636.11z"/>
	</g>
</g>
</svg>
