<?xml version="1.0" encoding="utf-8"?>
<!-- Generator: Adobe Illustrator 25.2.0, SVG Export Plug-In . SVG Version: 6.00 Build 0)  -->
<svg version="1.1" id="Layer_1" xmlns="http://www.w3.org/2000/svg" xmlns:xlink="http://www.w3.org/1999/xlink" x="0px" y="0px"
	 viewBox="0 0 22 22" style="enable-background:new 0 0 22 22;" xml:space="preserve">
<style type="text/css">
	.st0{fill:none;}
	.st1{fill:#F37677;}
</style>
<rect id="Rectangle_107" x="0" y="0" class="st0" width="22" height="22" />
<path id="Path_25" class="st1" d="M6.97,7.61h1.98L6.31,4.97L3.67,7.61h1.98v6.62H3.67l2.64,2.64l2.64-2.64H6.97V7.61z" fill = "currentColor"/>
<path id="Path_24" class="st1" d="M16.55,6.93h-3.57c-0.97-0.02-1.77,0.75-1.79,1.72v5.15h1.79v6h3.57v-6h1.79V8.65
	C18.31,7.68,17.51,6.92,16.55,6.93z" fill = "currentColor"/>
<path id="Ellipse_3" class="st1" d="M14.75,2.2c1.03-0.04,1.89,0.76,1.93,1.79c-0.08,1.07-1,1.87-2.07,1.79
	c-0.96-0.07-1.72-0.83-1.79-1.79C12.86,2.96,13.72,2.16,14.75,2.2z" fill = "currentColor"/>
</svg>
