<?xml version="1.0" encoding="utf-8"?>
<!-- Generator: Adobe Illustrator 25.2.0, SVG Export Plug-In . SVG Version: 6.00 Build 0)  -->
<svg version="1.1" id="Layer_1" xmlns="http://www.w3.org/2000/svg" xmlns:xlink="http://www.w3.org/1999/xlink" x="0px" y="0px"
	 viewBox="0 0 22 22" style="enable-background:new 0 0 22 22;" xml:space="preserve">
<style type="text/css">
	.st0{fill:none;}
	.st1{fill:#F37677;}
</style>
<rect id="Rectangle_23" x="0" class="st0" width="22" height="22"/>
<path id="Path_21" class="st1" d="M6.42,18.33h3.67c0,1.01-0.82,1.83-1.83,1.83S6.42,19.35,6.42,18.33z M4.58,17.42h7.33v-1.83H4.58
	L4.58,17.42z M15.12,8.71c-0.01,2.46-1.33,4.73-3.46,5.96H4.83C1.54,12.78,0.4,8.58,2.29,5.28s6.09-4.43,9.38-2.54
	C13.81,3.97,15.12,6.25,15.12,8.71z M13.29,8.71c0.04-2.78-2.19-5.07-4.97-5.11S3.25,5.78,3.21,8.57c0,0.05,0,0.09,0,0.14
	c-0.01,1.65,0.8,3.19,2.15,4.12h5.78C12.49,11.9,13.3,10.35,13.29,8.71z M19.59,6.76l-1.26,0.58l1.26,0.58l0.58,1.26l0.58-1.26
	L22,7.33l-1.26-0.58L20.17,5.5L19.59,6.76z M17.42,5.5l0.86-1.89l1.89-0.86l-1.89-0.86L17.42,0l-0.86,1.89l-1.89,0.86l1.89,0.86
	L17.42,5.5z" fill = "currentColor"/>
</svg>
