<?xml version="1.0" encoding="utf-8"?>
<!-- Generator: Adobe Illustrator 25.2.0, SVG Export Plug-In . SVG Version: 6.00 Build 0)  -->
<svg version="1.1" id="Layer_1" xmlns="http://www.w3.org/2000/svg" xmlns:xlink="http://www.w3.org/1999/xlink" x="0px" y="0px"
	 viewBox="0 0 22 22" style="enable-background:new 0 0 22 22;" xml:space="preserve">
<style type="text/css">
	.st0{fill:none;}
	.st1{fill:#F37677;}
</style>
<g id="Group_4" transform="translate(0 0)">
	<rect id="Rectangle_20" x="0" class="st0" width="22" height="22"/>
</g>
<g id="Group_6" transform="translate(2.556 3.089)">
	<g id="Group_5">
		<path id="Path_16" class="st1" d="M10.75,10.75l-3.58,3.58h8.95v-3.58H10.75z"/>
		<path id="Path_17" class="st1" d="M8.11,2.86L0,10.97v3.36h3.36l8.11-8.11L8.11,2.86z M2.61,12.54H1.79v-0.82l6.32-6.32l0.82,0.82
			L2.61,12.54z"/>
		<path id="Path_18" class="st1" d="M14.07,3.62c0.35-0.35,0.35-0.91,0-1.26c0,0,0,0,0,0l-2.1-2.1C11.8,0.09,11.58,0,11.34,0
			c-0.23,0-0.46,0.09-0.63,0.26L9.07,1.9l3.36,3.36L14.07,3.62z"/>
	</g>
</g>
</svg>
