<?xml version="1.0" encoding="utf-8"?>
<!-- Generator: Adobe Illustrator 25.2.0, SVG Export Plug-In . SVG Version: 6.00 Build 0)  -->
<svg version="1.1" id="Layer_1" xmlns="http://www.w3.org/2000/svg" xmlns:xlink="http://www.w3.org/1999/xlink" x="0px" y="0px"
	 viewBox="0 0 26.94 26.94" style="enable-background:new 0 0 26.94 26.94;" xml:space="preserve">
<style type="text/css">
	.st0{fill:#588289;}
</style>
<path id="Path_121" class="st0" d="M0,12.45h4.14v14.49H0V12.45z" fill = "currentColor" />
<path id="Path_33" class="st0" d="M19.02,1.65c0.9-1.03,2.19-1.63,3.56-1.65c2.37-0.03,4.32,1.87,4.35,4.25c0,0.03,0,0.07,0,0.1
	c0,2.99-3.84,6.46-7.91,10.15c-4.07-3.7-7.91-7.17-7.91-10.15C11.08,1.98,12.99,0.03,15.36,0c0.03,0,0.07,0,0.1,0
	C16.83,0.02,18.12,0.62,19.02,1.65z" fill = "currentColor"/>
<path id="Path_34" class="st0" d="M24.29,19.78h-9.23l-2.76-0.96l0.43-1.24l2.32,0.88h3.72c0.86,0,1.55-0.7,1.56-1.56l0,0
	c-0.01-0.65-0.41-1.23-1.01-1.46l-9.57-3.57h-2.6v11.89l9.23,2.61l10.56-3.95l0,0C26.93,20.96,25.75,19.78,24.29,19.78z" fill = "currentColor"/>
</svg>
