<?xml version="1.0" encoding="utf-8"?>
<!-- Generator: Adobe Illustrator 25.2.0, SVG Export Plug-In . SVG Version: 6.00 Build 0)  -->
<svg version="1.1" id="Layer_1" xmlns="http://www.w3.org/2000/svg" xmlns:xlink="http://www.w3.org/1999/xlink" x="0px" y="0px"
	 viewBox="0 0 33.39 33.39" style="enable-background:new 0 0 33.39 33.39;" xml:space="preserve">
<style type="text/css">
	.st0{fill:none;}
	.st1{fill:#2B4A4B;}
</style>
<path id="Path_4" class="st0" d="M0,0h33.39v33.39H0V0z"/>
<path id="Path_5" class="st1" d="M23.62,12.65h-1.16v-2.31c0.04-3.19-2.51-5.81-5.7-5.85c-3.19-0.04-5.81,2.51-5.85,5.7
	c0,0.05,0,0.1,0,0.15v2.31H9.77c-1.27,0-2.31,1.04-2.31,2.31v11.55c0,1.27,1.04,2.31,2.31,2.31h13.86c1.27,0,2.31-1.04,2.31-2.31
	V14.96C25.93,13.69,24.9,12.66,23.62,12.65z M16.69,23.05c-1.28,0-2.31-1.03-2.31-2.31s1.03-2.31,2.31-2.31
	c1.28,0,2.31,1.03,2.31,2.31C19,22.01,17.97,23.04,16.69,23.05z M20.28,12.65h-7.16v-2.31c0.03-1.98,1.66-3.55,3.64-3.52
	c1.93,0.03,3.49,1.59,3.52,3.52L20.28,12.65z"/>
</svg>
