<?xml version="1.0" encoding="utf-8"?>
<!-- Generator: Adobe Illustrator 25.2.0, SVG Export Plug-In . SVG Version: 6.00 Build 0)  -->
<svg version="1.1" id="Layer_1" xmlns="http://www.w3.org/2000/svg" xmlns:xlink="http://www.w3.org/1999/xlink" x="0px" y="0px"
	 viewBox="0 0 50 50" style="enable-background:new 0 0 50 50;" xml:space="preserve">
<style type="text/css">
	.st0{fill:none;}
	.st1{fill:#5FCAE7;}
</style>
<g id="male_black_24dp_1_" transform="translate(0.455 0.455)">
	<rect id="Rectangle_95" x="-0.46" y="-0.46" class="st0" width="50" height="50"/>
	<path id="Path_104" class="st1" d="M19.62,22.72c3.99,0,7.22,3.23,7.22,7.22s-3.23,7.22-7.22,7.22s-7.22-3.23-7.22-7.22l0,0
		C12.4,25.95,15.63,22.72,19.62,22.72z M19.62,18.59c-6.27,0-11.35,5.08-11.35,11.35c0,6.27,5.08,11.35,11.35,11.35
		s11.35-5.08,11.35-11.35c0-2.3-0.7-4.54-2-6.43l8.19-8.17v5.32h4.13V8.27H28.91v4.13h5.33l-8.19,8.19
		C24.15,19.28,21.91,18.58,19.62,18.59z"/>
</g>
</svg>
