<?xml version="1.0" encoding="utf-8"?>
<!-- Generator: Adobe Illustrator 25.2.0, SVG Export Plug-In . SVG Version: 6.00 Build 0)  -->
<svg version="1.1" id="Layer_1" xmlns="http://www.w3.org/2000/svg" xmlns:xlink="http://www.w3.org/1999/xlink" x="0px" y="0px"
	 viewBox="0 0 45 45" style="enable-background:new 0 0 45 45;" xml:space="preserve">
<style type="text/css">
	.st0{fill:none;}
	.st1{fill:#FFFFFF;}
</style>
<path id="Path_78" class="st0" d="M-0.01-0.01H45v45.02H-0.01V-0.01z"/>
<path id="Path_79" class="st1" d="M11.24,18.75c-2.07,0-3.75,1.68-3.76,3.75s1.68,3.75,3.75,3.76s3.75-1.68,3.76-3.75c0,0,0,0,0,0
	C14.98,20.43,13.31,18.76,11.24,18.75z M33.75,18.75c-2.07,0-3.75,1.68-3.75,3.75c0,2.07,1.68,3.75,3.75,3.75
	c2.07,0,3.75-1.68,3.75-3.75c0,0,0,0,0,0C37.49,20.43,35.82,18.75,33.75,18.75z M22.49,18.75c-2.07,0-3.75,1.68-3.75,3.75
	s1.68,3.75,3.75,3.75s3.75-1.68,3.75-3.75C26.24,20.43,24.56,18.75,22.49,18.75z"/>
</svg>
