<?xml version="1.0" encoding="utf-8"?>
<!-- Generator: Adobe Illustrator 25.2.0, SVG Export Plug-In . SVG Version: 6.00 Build 0)  -->
<svg version="1.1" id="Layer_1" xmlns="http://www.w3.org/2000/svg" xmlns:xlink="http://www.w3.org/1999/xlink" x="0px" y="0px"
	 viewBox="0 0 27 27" style="enable-background:new 0 0 27 27;" xml:space="preserve">
<style type="text/css">
	.st0{fill:none;}
	.st1{fill:rgba(255,255,255,0.7);}
</style>
<path id="Path_14" class="st0" d="M0,0h27v27H0V0z"/>
<path id="Path_15" class="st1" d="M21.17,7.99v3.23c0,0-2.15,0.01-2.16,0V7.99h-3.24c0,0,0.01-2.15,0-2.16h3.24V2.58h2.16v3.24h3.24
	v2.16H21.17z M17.93,12.31V9.07h-3.24V5.83H6.04c-1.19,0-2.16,0.97-2.16,2.16v12.97c0,1.19,0.97,2.16,2.16,2.16h12.97
	c1.19,0,2.16-0.97,2.16-2.16v-8.65H17.93z M6.04,20.96l3.24-4.32l2.16,3.25l3.24-4.32l4.32,5.41L6.04,20.96z"/>
</svg>
