<?xml version="1.0" encoding="utf-8"?>
<!-- Generator: Adobe Illustrator 25.2.0, SVG Export Plug-In . SVG Version: 6.00 Build 0)  -->
<svg version="1.1" id="Layer_1" xmlns="http://www.w3.org/2000/svg" xmlns:xlink="http://www.w3.org/1999/xlink" x="0px" y="0px"
	 viewBox="0 0 18.15 18.15" style="enable-background:new 0 0 18.15 18.15;" xml:space="preserve">
<style type="text/css">
	.st0{fill:none;}
	.st1{fill:#00444E;}
</style>
<path id="Path_83" class="st0" d="M0-0.01h18.15v18.16H0V-0.01z"/>
<path id="Path_84" class="st1" d="M9.08,3.39c-3.67,0-6.97,2.25-8.32,5.68c1.8,4.6,6.99,6.86,11.58,5.06
	c2.31-0.91,4.14-2.74,5.05-5.06C16.05,5.65,12.75,3.39,9.08,3.39z M9.08,12.85c-2.09,0-3.78-1.7-3.78-3.79
	c0-2.09,1.7-3.78,3.78-3.78c2.09,0,3.78,1.7,3.78,3.79C12.86,11.16,11.16,12.85,9.08,12.85z M9.08,6.8c-1.25,0-2.27,1.02-2.27,2.27
	s1.02,2.27,2.27,2.27s2.27-1.02,2.27-2.27l0,0C11.35,7.82,10.33,6.8,9.08,6.8C9.08,6.8,9.08,6.8,9.08,6.8L9.08,6.8z"/>
</svg>
