<?xml version="1.0" encoding="utf-8"?>
<!-- Generator: Adobe Illustrator 25.2.0, SVG Export Plug-In . SVG Version: 6.00 Build 0)  -->
<svg version="1.1" id="Layer_1" xmlns="http://www.w3.org/2000/svg" xmlns:xlink="http://www.w3.org/1999/xlink" x="0px" y="0px"
	 viewBox="0 0 21.86 19.96" style="enable-background:new 0 0 21.86 19.96;" xml:space="preserve">
<style type="text/css">
	.st0{fill:none;}
</style>
<path id="Path_112" class="st0" d="M0,0h21.86v19.96H0V0z"/>
<path id="Path_113" d="M18.34,1.66H3.52c-0.97-0.05-1.79,0.7-1.84,1.66L1.66,18.3l3.71-3.33h12.97c0.97,0.05,1.79-0.69,1.85-1.66
	V3.33C20.14,2.36,19.31,1.62,18.34,1.66z M18.34,13.31H4.6L4.05,13.8l-0.54,0.48V3.33h14.82V13.31z M9.54,11.64h6.95V9.98h-5.1
	L9.54,11.64z M13.12,6.76c0.16-0.13,0.19-0.38,0.05-0.54c-0.02-0.02-0.03-0.04-0.05-0.05L11.48,4.7c-0.19-0.16-0.47-0.16-0.66,0
	L5.37,9.59v2.05h2.29L13.12,6.76z" fill = "currentColor" />
</svg>
