<?xml version="1.0" encoding="utf-8"?>
<!-- Generator: Adobe Illustrator 25.2.0, SVG Export Plug-In . SVG Version: 6.00 Build 0)  -->
<svg version="1.1" id="Layer_1" xmlns="http://www.w3.org/2000/svg" xmlns:xlink="http://www.w3.org/1999/xlink" x="0px" y="0px"
	 viewBox="0 0 32.77 32.77" style="enable-background:new 0 0 32.77 32.77;" xml:space="preserve">
<style type="text/css">
	.st0{fill:none;}
	.st1{fill:#95B0B7;}
</style>
<path id="Path_74" class="st0" d="M0,0h32.77v32.77H0V0z"/>
<path id="Path_75" class="st1" d="M21.16,19.12h-1.08l-0.38-0.37c3.2-3.73,2.77-9.34-0.96-12.53S9.41,3.45,6.21,7.17
	S3.44,16.51,7.17,19.7c3.33,2.86,8.25,2.86,11.58,0l0.37,0.38v1.08l6.83,6.81l2.03-2.03L21.16,19.12z M12.97,19.12
	c-3.39,0-6.14-2.75-6.14-6.14s2.75-6.14,6.14-6.14s6.14,2.75,6.14,6.14l0,0c0,3.39-2.74,6.14-6.13,6.14
	C12.98,19.12,12.98,19.12,12.97,19.12z"/>
</svg>
