<?xml version="1.0" encoding="utf-8"?>
<!-- Generator: Adobe Illustrator 25.2.0, SVG Export Plug-In . SVG Version: 6.00 Build 0)  -->
<svg version="1.1" id="Layer_1" xmlns="http://www.w3.org/2000/svg" xmlns:xlink="http://www.w3.org/1999/xlink" x="0px" y="0px"
	 viewBox="0 0 50 50" style="enable-background:new 0 0 50 50;" xml:space="preserve">
<style type="text/css">
	.st0{fill:none;}
	.st1{fill:#D2C061;}
</style>
<g id="transgender_black_24dp" transform="translate(0 0.165)">
	<rect id="Rectangle_97" y="-0.17" class="st0" width="50" height="50"/>
	<path id="Path_110" class="st1" d="M24.89,16.65c4.01,0,7.26,3.25,7.26,7.26s-3.25,7.26-7.26,7.26s-7.26-3.25-7.26-7.26l0,0
		C17.63,19.91,20.88,16.66,24.89,16.65z M34.28,17.44l8.23-8.21v5.35h4.15V2.14H34.22v4.15h5.35l-8.23,8.23
		c-3.88-2.68-9.02-2.68-12.9,0l-1.35-1.35l2.92-2.92L17.09,7.3l-2.94,2.92L10.2,6.29h5.35V2.14H3.11v12.44h4.15V9.23l3.96,3.94
		l-2.94,2.95l2.92,2.92l2.92-2.92l1.35,1.35c-3.56,5.21-2.22,12.31,2.98,15.87c1.31,0.9,2.8,1.51,4.36,1.8v4.33h-4.15v4.15h4.15
		v4.15h4.15v-4.15h4.15v-4.15h-4.15v-4.33c6.2-1.15,10.29-7.1,9.15-13.3C35.81,20.26,35.19,18.76,34.28,17.44L34.28,17.44z"/>
</g>
</svg>
