<?xml version="1.0" encoding="utf-8"?>
<!-- Generator: Adobe Illustrator 25.2.0, SVG Export Plug-In . SVG Version: 6.00 Build 0)  -->
<svg version="1.1" id="Layer_1" xmlns="http://www.w3.org/2000/svg" xmlns:xlink="http://www.w3.org/1999/xlink" x="0px" y="0px"
	 viewBox="0 0 22 22" style="enable-background:new 0 0 22 22;" xml:space="preserve">
<style type="text/css">
	.st0{fill:none;}
	.st1{fill:#F37677;}
</style>
<g id="Group_7" transform="translate(0.001)">
	<rect id="Rectangle_26" x="0" class="st0" width="22" height="22"/>
	<path id="Path_27" class="st1" d="M12.98,17.36l1.24-0.45l-0.45-1.24l-3.1,1.13L7.95,9.35l3.11-1.13L10.6,6.98L9.36,7.43L8.9,6.19
		L7.04,6.87L6.59,5.63L5.34,6.07l0.45,1.24L3.94,7.99l0.45,1.24L3.15,9.68l0.45,1.24l3.1-1.13l2.71,7.44l-3.1,1.14l0.45,1.24
		L8,19.16l0.45,1.24l1.86-0.68l0.45,1.24L12,20.51l-0.45-1.24l1.86-0.68L12.98,17.36z" fill = "currentColor"/>
	<path id="Path_24" class="st1" d="M18.98,7.35H15.4c-0.97-0.02-1.77,0.75-1.79,1.72c0,0,0,0,0,0v5.15h1.79v6h3.57v-6h1.79V9.07
		C20.73,8.1,19.94,7.34,18.98,7.35z" fill = "currentColor"/>
	<path id="Ellipse_3" class="st1" d="M17.17,2.63c1.03-0.04,1.89,0.76,1.93,1.79c0,0,0,0,0,0c-0.08,1.07-1,1.87-2.07,1.79
		c-0.96-0.07-1.72-0.83-1.79-1.79C15.29,3.39,16.15,2.59,17.17,2.63z" fill = "currentColor"/>
</g>
</svg>
