<?xml version="1.0" encoding="utf-8"?>
<!-- Generator: Adobe Illustrator 25.2.0, SVG Export Plug-In . SVG Version: 6.00 Build 0)  -->
<svg version="1.1" id="Layer_1" xmlns="http://www.w3.org/2000/svg" xmlns:xlink="http://www.w3.org/1999/xlink" x="0px" y="0px"
	 viewBox="0 0 35.32 32.52" style="enable-background:new 0 0 35.32 32.52;" xml:space="preserve">
<style type="text/css">
	.st0{fill:#334B4C;}
	.st1{fill:#637C7D;}
	.st2{fill:none;}
</style>
<g id="Path_28" transform="translate(0.439 3.679) rotate(-11)">
	<path class="st0" d="M14.69,28.88l-9.8,0.05c-2.42,0.01-4.38-2-4.37-4.48l0.1-20.11c0.01-2.48,1.99-4.52,4.42-4.53l9.8-0.05
		c2.42-0.01,4.38,2,4.37,4.48l-0.1,20.11C19.1,26.83,17.12,28.87,14.69,28.88z"/>
	<path class="st1" d="M5.04,0.33C2.9,0.34,1.14,2.14,1.13,4.33l-0.1,20.11c-0.01,2.2,1.72,3.98,3.86,3.96l9.8-0.05
		c2.14-0.01,3.89-1.81,3.9-4.01l0.1-20.11c0.01-2.2-1.72-3.98-3.86-3.96L5.04,0.33 M5.04-0.72l9.8-0.05c2.71-0.01,4.89,2.23,4.88,5
		l-0.1,20.11c-0.01,2.78-2.22,5.04-4.93,5.05l-9.8,0.05c-2.71,0.01-4.89-2.23-4.88-5l0.1-20.11C0.13,1.56,2.34-0.7,5.04-0.72z"/>
</g>
<g id="emoji_people_black_24dp" transform="matrix(0.985, -0.174, 0.174, 0.985, 0, 7.9)">
	<g id="Group_17">
		<polygon id="Rectangle_35" points="0.09,-0.51 20.3,-0.61 20.2,20.13 -0.01,20.23 		"/>
	</g>
	<g id="Group_19" transform="translate(3.313 1.656)">
		<g id="Group_18" transform="translate(0 0)">
			
				<ellipse id="Ellipse_4" transform="matrix(-0.9848 -0.174 0.174 -0.9848 13.3533 4.2837)" class="st1" cx="6.86" cy="1.56" rx="1.84" ry="1.89"/>
			<path id="Path_32" class="st1" d="M10.12,4.78c-0.49-0.6-1.22-0.95-1.98-0.95L6.01,3.84c-2.32,0-4.19-1.92-4.18-4.3L0.14-0.45
				C0.13,2.22,1.83,4.57,4.32,5.32L4.27,16.81l1.69-0.01l0.02-5.18l1.68-0.01l-0.02,5.18l1.68-0.01L9.37,6.45l3.31,3.4l1.19-1.22
				L10.12,4.78z"/>
		</g>
	</g>
</g>
<g id="Path_29" transform="translate(16.185 1.471) rotate(7)">
	<path class="st0" d="M14.95,28.89l-9.8-0.03c-2.42-0.01-4.4-2.04-4.4-4.52L0.68,4.21C0.67,1.72,2.64-0.3,5.06-0.29l9.8,0.03
		c2.42,0.01,4.4,2.04,4.4,4.52l0.07,20.12C19.33,26.88,17.37,28.89,14.95,28.89z"/>
	<path class="st1" d="M5.06,0.23C2.92,0.23,1.18,2.01,1.19,4.21l0.07,20.12c0.01,2.2,1.75,3.99,3.9,4l9.8,0.03
		c2.14,0.01,3.88-1.78,3.87-3.97L18.75,4.27c-0.01-2.2-1.75-3.99-3.89-4L5.06,0.23 M5.05-0.81l9.8,0.03
		c2.71,0.01,4.91,2.27,4.91,5.05l0.07,20.12c0.01,2.78-2.18,5.02-4.88,5.01l-9.8-0.03c-2.71-0.01-4.91-2.27-4.91-5.05L0.17,4.2
		C0.16,1.42,2.35-0.82,5.05-0.81z"/>
</g>
<g id="volunteer_activism_black_24dp" transform="translate(17.733 7.89) rotate(7)">
	<g id="Group_30" transform="translate(0 0.331)">
		<polygon id="Rectangle_39" class="st2" points="0.22,-0.53 14.89,-0.48 14.94,14.58 0.27,14.53 		"/>
	</g>
	<g id="Group_34" transform="translate(0.62 1.136)">
		<g id="Group_33">
			<g id="Group_32">
				<g id="Group_31">
					<path id="Path_48" class="st1" d="M9.7,6.65c1.94-1.81,3.77-3.5,3.76-4.97c0.01-1.17-0.91-2.12-2.04-2.14
						c-0.01,0-0.03,0-0.04,0c-0.65,0-1.27,0.3-1.7,0.8c-0.43-0.51-1.05-0.8-1.7-0.81C6.84-0.49,5.91,0.44,5.9,1.61
						c0,0.02,0,0.03,0,0.05C5.91,3.12,7.74,4.83,9.7,6.65z M7.98,0.82c0.29,0.01,0.56,0.14,0.74,0.36l0.96,1.16l0.95-1.15
						c0.19-0.22,0.46-0.35,0.74-0.35c0.44-0.01,0.81,0.35,0.82,0.81c0,0.01,0,0.02,0,0.03c0,0.72-1.28,2.05-2.51,3.22
						C8.45,3.71,7.17,2.38,7.16,1.66C7.15,1.21,7.5,0.83,7.95,0.82C7.96,0.82,7.97,0.82,7.98,0.82z"/>
					<path id="Path_49" class="st1" d="M11.59,8.6l-1.26,0c0-0.78-0.47-1.47-1.18-1.75l-3.88-1.5L0.25,5.32l0.02,7.11l3.78,0.01
						l0-0.93l4.41,1.27l5.03-1.6l0-0.65C13.48,9.47,12.64,8.6,11.59,8.6C11.59,8.6,11.59,8.6,11.59,8.6z M1.53,11.15L1.51,6.62
						l1.26,0l0.01,4.53L1.53,11.15z M8.44,11.44l-4.39-1.27L4.03,6.62l1.02,0l3.67,1.42c0.22,0.09,0.36,0.3,0.36,0.54
						c-0.49-0.01-0.97-0.04-1.45-0.1l-1.5-0.52L5.73,9.19l1.5,0.52c0.32,0.11,0.66,0.17,1,0.17l3.37,0.01
						c0.24,0,0.46,0.14,0.57,0.36L8.44,11.44z"/>
				</g>
			</g>
		</g>
	</g>
</g>
</svg>
