<?xml version="1.0" encoding="utf-8"?>
<!-- Generator: Adobe Illustrator 25.2.0, SVG Export Plug-In . SVG Version: 6.00 Build 0)  -->
<svg version="1.1" id="Layer_1" xmlns="http://www.w3.org/2000/svg" xmlns:xlink="http://www.w3.org/1999/xlink" x="0px" y="0px"
	 viewBox="0 0 35.32 32.52" style="enable-background:new 0 0 35.32 32.52;" xml:space="preserve">
<style type="text/css">
	.st0{fill:#6BCCE0;}
	.st1{fill:#FFFFFF;}
	.st2{fill:#5DBFED;}
	.st3{fill:#F5F7FC;}
	.st4{fill:#D67E7E;}
	.st5{fill:#F37375;}
</style>
<g id="Group_121" transform="translate(-23.34 -734.137)">
	<g id="Path_28" transform="translate(23.779 737.816) rotate(-11)">
		<path class="st0" d="M14.69,28.88l-9.8,0.05c-2.42,0.01-4.38-2-4.37-4.48l0.1-20.11c0.01-2.48,1.99-4.52,4.42-4.53l9.8-0.05
			c2.42-0.01,4.38,2,4.37,4.48l-0.1,20.11C19.1,26.83,17.12,28.87,14.69,28.88z"/>
		<path class="st1" d="M5.04,0.33C2.9,0.34,1.14,2.14,1.13,4.33l-0.1,20.11c-0.01,2.2,1.72,3.98,3.86,3.96l9.8-0.05
			c2.14-0.01,3.89-1.81,3.9-4.01l0.1-20.11c0.01-2.2-1.72-3.98-3.86-3.96L5.04,0.33 M5.04-0.72l9.8-0.05c2.71-0.01,4.89,2.23,4.88,5
			l-0.1,20.11c-0.01,2.78-2.22,5.04-4.93,5.05l-9.8,0.05c-2.71,0.01-4.89-2.23-4.88-5l0.1-20.11C0.13,1.56,2.34-0.7,5.04-0.72z"/>
	</g>
	<g id="emoji_people_black_24dp" transform="matrix(0.985, -0.174, 0.174, 0.985, 23.34, 742.038)">
		<g id="Group_17">
			<polygon id="Rectangle_35" points="0.09,-0.51 20.3,-0.61 20.2,20.13 -0.01,20.23 			"/>
		</g>
		<g id="Group_19" transform="translate(3.313 1.656)">
			<g id="Group_18" transform="translate(0 0)">
				
					<ellipse id="Ellipse_4" transform="matrix(-0.9848 -0.174 0.174 -0.9848 13.3533 4.2839)" class="st2" cx="6.86" cy="1.56" rx="1.84" ry="1.89"/>
				<path id="Path_32" class="st2" d="M10.12,4.78c-0.49-0.6-1.22-0.95-1.98-0.95L6.01,3.84c-2.32,0-4.19-1.92-4.18-4.3L0.14-0.45
					C0.13,2.22,1.83,4.57,4.32,5.32L4.27,16.81l1.69-0.01l0.02-5.18l1.68-0.01l-0.02,5.18l1.68-0.01L9.37,6.45l3.31,3.4l1.19-1.22
					L10.12,4.78z"/>
			</g>
		</g>
	</g>
	<g id="Path_29" transform="translate(39.525 735.608) rotate(7)">
		<path class="st0" d="M14.95,28.89l-9.8-0.03c-2.42-0.01-4.4-2.04-4.4-4.52L0.68,4.21C0.67,1.72,2.64-0.3,5.06-0.29l9.8,0.03
			c2.42,0.01,4.4,2.04,4.4,4.52l0.07,20.12C19.33,26.88,17.37,28.89,14.95,28.89z"/>
		<path class="st3" d="M5.06,0.23C2.92,0.23,1.18,2.01,1.19,4.21l0.07,20.12c0.01,2.2,1.75,3.99,3.9,4l9.8,0.03
			c2.14,0.01,3.88-1.78,3.87-3.97L18.75,4.27c-0.01-2.2-1.75-3.99-3.89-4L5.06,0.23 M5.05-0.81l9.8,0.03
			c2.71,0.01,4.91,2.27,4.91,5.05l0.07,20.12c0.01,2.78-2.18,5.02-4.88,5.01l-9.8-0.03c-2.71-0.01-4.91-2.27-4.91-5.05L0.17,4.2
			C0.16,1.43,2.35-0.82,5.05-0.81z"/>
	</g>
	<g id="volunteer_activism_black_24dp_1_" transform="translate(41.036 742.191) rotate(7)">
		<g id="Group_20" transform="translate(0 0)">
			<polygon id="Rectangle_36" points="0.22,-0.54 14.91,-0.49 14.96,14.6 0.27,14.55 			"/>
		</g>
		<g id="Group_22" transform="translate(0.964 0.954)">
			<g id="Group_21" transform="translate(0 0)">
				<polygon id="Rectangle_37" class="st4" points="0.25,5.55 2.21,5.56 2.24,12.6 0.28,12.6 				"/>
				<path id="Path_33" class="st5" d="M9.24,0.33c0.42-0.5,1.03-0.79,1.68-0.79c1.12-0.01,2.05,0.91,2.07,2.07c0,0.02,0,0.04,0,0.05
					c0,1.46-1.8,3.13-3.73,4.92C7.33,4.78,5.51,3.08,5.5,1.64c-0.02-1.15,0.88-2.1,2-2.11c0.02,0,0.04,0,0.05,0
					C8.2-0.46,8.81-0.17,9.24,0.33z"/>
				<path id="Path_34" class="st4" d="M11.76,9.15L7.39,9.14l-1.3-0.47l0.2-0.6l1.1,0.43L9.15,8.5c0.41,0,0.73-0.34,0.73-0.75l0,0
					c0-0.32-0.2-0.6-0.48-0.71L4.87,5.29l-1.23,0l0.02,5.78l4.37,1.28l4.99-1.91l0,0C13.02,9.73,12.45,9.16,11.76,9.15z"/>
			</g>
		</g>
	</g>
</g>
</svg>
