<?xml version="1.0" encoding="utf-8"?>
<!-- Generator: Adobe Illustrator 25.2.0, SVG Export Plug-In . SVG Version: 6.00 Build 0)  -->
<svg version="1.1" id="Layer_1" xmlns="http://www.w3.org/2000/svg" xmlns:xlink="http://www.w3.org/1999/xlink" x="0px" y="0px"
	 viewBox="0 0 35.32 32.52" style="enable-background:new 0 0 35.32 32.52;" xml:space="preserve">
<style type="text/css">
	.st0{fill:#637C7D;}
</style>
<path id="chat-116" class="st0" d="M3.23,32.52c0.27,0,0.54-0.07,0.78-0.21l6.56-3.82c2.27,0.83,4.67,1.26,7.1,1.25
	c9.74,0,17.66-6.67,17.66-14.87S27.4,0,17.66,0S0,6.67,0,14.87c0.03,3.68,1.59,7.19,4.31,9.74l-2.5,5.83
	c-0.26,0.6-0.09,1.28,0.4,1.71C2.5,32.39,2.85,32.52,3.23,32.52L3.23,32.52z M10.43,25.32c-0.27,0-0.54,0.07-0.78,0.21l-3.23,1.88
	l1.12-2.61c0.26-0.6,0.09-1.29-0.41-1.72c-2.53-2.02-4.02-5.02-4.08-8.21c0-6.54,6.55-11.87,14.61-11.87s14.61,5.32,14.61,11.87
	s-6.55,11.86-14.6,11.86c-2.28,0.01-4.54-0.43-6.63-1.3C10.84,25.36,10.64,25.32,10.43,25.32L10.43,25.32z M26.56,15.01
	c-0.01-1.11-0.94-2-2.08-1.98c-1.14,0.01-2.05,0.92-2.04,2.02c0.01,1.11,0.94,2,2.08,1.98c1.12-0.01,2.02-0.89,2.04-1.98V15.01z
	 M19.95,15.01c-0.01,1.1-0.93,1.98-2.05,1.97c-1.12-0.01-2.03-0.91-2.02-2c0.01-1.09,0.92-1.97,2.03-1.97
	C19.04,13.01,19.95,13.9,19.95,15.01C19.95,15,19.95,15.01,19.95,15.01z M13.34,15.01c-0.01-1.08-0.92-1.95-2.03-1.94
	c-1.11,0.01-2,0.89-1.99,1.98c0.01,1.08,0.92,1.95,2.03,1.94c1.09-0.01,1.98-0.87,1.99-1.94V15.01z"/>
</svg>
