<?xml version="1.0" encoding="utf-8"?>
<!-- Generator: Adobe Illustrator 25.2.0, SVG Export Plug-In . SVG Version: 6.00 Build 0)  -->
<svg version="1.1" id="Layer_1" xmlns="http://www.w3.org/2000/svg" xmlns:xlink="http://www.w3.org/1999/xlink" x="0px" y="0px"
	 viewBox="0 0 35.32 32.52" style="enable-background:new 0 0 35.32 32.52;" xml:space="preserve">
<style type="text/css">
	.st0{fill:#6BCCE0;}
</style>
<path id="Exclusion_1" class="st0" d="M3.44,32.52c-0.42,0.03-0.84-0.05-1.22-0.24c-0.5-0.43-0.66-1.12-0.4-1.72l2.5-5.85
	c-1.35-1.3-2.44-2.84-3.2-4.54C0.38,18.51,0,16.73,0,14.93C0,6.7,7.92,0,17.66,0s17.66,6.7,17.66,14.93S27.4,29.86,17.66,29.86
	h-0.07c-2.4,0-4.78-0.42-7.02-1.26L4,32.44C3.82,32.51,3.63,32.53,3.44,32.52z M24.64,13.17c-1.19,0-2.15,0.94-2.15,2.1
	s0.96,2.1,2.15,2.1c1.19,0,2.15-0.94,2.15-2.1C26.79,14.11,25.83,13.17,24.64,13.17L24.64,13.17z M17.87,13.17
	c-1.19,0-2.15,0.94-2.15,2.1s0.96,2.1,2.15,2.1c1.19,0,2.15-0.94,2.15-2.1C20.02,14.11,19.06,13.17,17.87,13.17L17.87,13.17z
	 M11.21,13.17c-1.19,0-2.15,0.94-2.15,2.1s0.96,2.1,2.15,2.1s2.15-0.94,2.15-2.1C13.36,14.11,12.4,13.17,11.21,13.17L11.21,13.17z"
	/>
</svg>
