<?xml version="1.0" encoding="utf-8"?>
<!-- Generator: Adobe Illustrator 25.2.0, SVG Export Plug-In . SVG Version: 6.00 Build 0)  -->
<svg version="1.1" id="Layer_1" xmlns="http://www.w3.org/2000/svg" xmlns:xlink="http://www.w3.org/1999/xlink" x="0px" y="0px"
	 viewBox="0 0 35.32 32.52" style="enable-background:new 0 0 35.32 32.52;" xml:space="preserve">
<style type="text/css">
	.st0{fill:#637C7D;}
</style>
<path id="Path_38" class="st0" d="M25.61,0c-3.04,0.02-5.94,1.36-7.95,3.7c-2.01-2.34-4.9-3.69-7.95-3.7C4.46-0.11,0.11,4.17,0,9.56
	c0,0.06,0,0.13,0,0.19c0,6.7,6.01,12.16,15.1,20.45l2.56,2.32l2.56-2.34c9.1-8.28,15.1-13.73,15.1-20.43
	C35.31,4.36,31.05-0.01,25.79,0C25.73,0,25.67,0,25.61,0z M17.84,27.56l-0.18,0.18l-0.18-0.18C9.08,19.92,3.53,14.87,3.53,9.75
	C3.49,6.37,6.12,3.59,9.42,3.54c0.1,0,0.2,0,0.3,0c2.72,0,5.19,1.64,6.31,4.18h3.3c1.1-2.55,3.57-4.19,6.29-4.18
	c3.29-0.12,6.06,2.52,6.18,5.9c0,0.1,0,0.2,0,0.31C31.79,14.87,26.25,19.92,17.84,27.56z"/>
</svg>
