<?xml version="1.0" encoding="utf-8"?>
<!-- Generator: Adobe Illustrator 25.2.0, SVG Export Plug-In . SVG Version: 6.00 Build 0)  -->
<svg version="1.1" id="Layer_1" xmlns="http://www.w3.org/2000/svg" xmlns:xlink="http://www.w3.org/1999/xlink" x="0px" y="0px"
	 viewBox="0 0 35.32 32.52" style="enable-background:new 0 0 35.32 32.52;" xml:space="preserve">
<style type="text/css">
	.st0{fill:#637C7D;}
</style>
<path id="Path_43" class="st0" d="M17.69,8.78l1.71,3.92l0.83,1.9l2.12,0.17l4.35,0.36l-3.31,2.79l-1.6,1.35l0.48,2.02l0.99,4.12
	l-3.74-2.19l-1.82-1.1l-1.82,1.06l-3.74,2.19l0.99-4.12l0.48-2.02L12,17.89L8.68,15.1l4.35-0.36l2.12-0.17l0.83-1.9L17.69,8.78
	 M17.69,0l-4.96,11.35L0.06,12.39l9.63,8.1L6.79,32.52l10.9-6.38l10.89,6.38l-2.89-12.03l9.63-8.1l-12.68-1.04L17.69,0z"/>
</svg>
