<?xml version="1.0" encoding="utf-8"?>
<!-- Generator: Adobe Illustrator 25.2.0, SVG Export Plug-In . SVG Version: 6.00 Build 0)  -->
<svg version="1.1" id="Layer_1" xmlns="http://www.w3.org/2000/svg" xmlns:xlink="http://www.w3.org/1999/xlink" x="0px" y="0px"
	 viewBox="0 0 35.32 32.52" style="enable-background:new 0 0 35.32 32.52;" xml:space="preserve">
<style type="text/css">
	.st0{fill:#637C7D;}
</style>
<path id="Path_41" class="st0" d="M17.66,4.06c2.44,0,4.41,1.82,4.41,4.06s-1.98,4.06-4.41,4.06s-4.41-1.82-4.41-4.06
	C13.26,5.89,15.23,4.07,17.66,4.06 M17.66,24.39c5.96,0,12.81,2.62,13.25,4.06H4.41C4.92,26.99,11.72,24.39,17.66,24.39 M17.66,0
	c-4.87,0-8.83,3.64-8.83,8.13s3.95,8.13,8.83,8.13s8.83-3.64,8.83-8.13S22.53,0,17.66,0L17.66,0z M17.66,20.33
	C11.77,20.33,0,23.05,0,28.46v4.06h35.32v-4.06C35.32,23.05,23.55,20.33,17.66,20.33z"/>
</svg>
